<svg xmlns="http://www.w3.org/2000/svg" viewBox="0 0 280 360" role="img" aria-label="Internet globe icon">
  <defs>
    <radialGradient id="g1" cx="34%" cy="28%" r="72%">
      <stop offset="0" stop-color="#9cd8ff"/>
      <stop offset="0.38" stop-color="#64b9f2"/>
      <stop offset="0.7" stop-color="#1c8ed8"/>
      <stop offset="1" stop-color="#056cb9"/>
    </radialGradient>
    <linearGradient id="g2" x1="0" x2="1" y1="0" y2="1">
      <stop offset="0" stop-color="#9fe0ff" stop-opacity="0.95"/>
      <stop offset="1" stop-color="#ffffff" stop-opacity="0.18"/>
    </linearGradient>
    <filter id="shadow" x="-20%" y="-20%" width="140%" height="160%">
      <feDropShadow dx="0" dy="20" stdDeviation="16" flood-color="#0f172a" flood-opacity="0.18"/>
    </filter>
  </defs>
  <ellipse cx="138" cy="324" rx="88" ry="18" fill="#0f172a" opacity="0.12"/>
  <g filter="url(#shadow)">
    <circle cx="132" cy="160" r="118" fill="url(#g1)"/>
    <path d="M48 74c56-46 150-42 206 18" fill="none" stroke="#ffffff" stroke-width="8" stroke-linecap="round"/>
    <path d="M20 148c24-40 66-74 118-92" fill="none" stroke="#ffffff" stroke-width="8" stroke-linecap="round"/>
    <path d="M24 234c10-58 40-118 96-164" fill="none" stroke="#ffffff" stroke-width="8" stroke-linecap="round"/>
    <path d="M76 278c8-86 58-176 138-218" fill="none" stroke="#ffffff" stroke-width="8" stroke-linecap="round"/>
    <path d="M146 276c40-54 74-124 84-198" fill="none" stroke="#ffffff" stroke-width="8" stroke-linecap="round"/>
    <path d="M32 96c62 10 126 48 174 110 18 24 30 48 38 72" fill="none" stroke="#ffffff" stroke-width="8" stroke-linecap="round"/>
    <path d="M218 54c34 46 42 132 8 212" fill="none" stroke="#ffffff" stroke-width="8" stroke-linecap="round"/>
    <circle cx="90" cy="96" r="14" fill="#ffffff"/>
    <circle cx="146" cy="102" r="14" fill="#ffffff"/>
    <circle cx="112" cy="148" r="14" fill="#ffffff"/>
    <circle cx="62" cy="206" r="14" fill="#ffffff"/>
    <circle cx="186" cy="286" r="14" fill="#ffffff"/>
    <circle cx="246" cy="74" r="16" fill="#2f9de0"/>
    <path d="M206 310c32-10 52-30 58-74 4-32-2-74-12-108" fill="none" stroke="#ffffff" stroke-width="9" stroke-linecap="round"/>
    <path d="M78 292c46 10 108 4 168-28" fill="none" stroke="#ffffff" stroke-width="9" stroke-linecap="round"/>
    <path d="M58 86c22-18 44-28 76-36 34-8 78-2 106 10" fill="url(#g2)" opacity="0.4"/>
  </g>
</svg>
