<svg xmlns="http://www.w3.org/2000/svg" viewBox="0 0 960 220" role="img" aria-label="Premium VPN router device">
  <defs>
    <linearGradient id="vpnBody" x1="0" x2="0" y1="0" y2="1">
      <stop offset="0" stop-color="#2d3138"/>
      <stop offset="0.45" stop-color="#1b1f27"/>
      <stop offset="1" stop-color="#10141c"/>
    </linearGradient>
    <linearGradient id="vpnEdge" x1="0" x2="1" y1="0" y2="0">
      <stop offset="0" stop-color="#64748b"/>
      <stop offset="0.5" stop-color="#cbd5e1"/>
      <stop offset="1" stop-color="#64748b"/>
    </linearGradient>
    <linearGradient id="vpnPanel" x1="0" x2="0" y1="0" y2="1">
      <stop offset="0" stop-color="#0f172a"/>
      <stop offset="1" stop-color="#111827"/>
    </linearGradient>
    <linearGradient id="vpnBezel" x1="0" x2="0" y1="0" y2="1">
      <stop offset="0" stop-color="#334155"/>
      <stop offset="1" stop-color="#1e293b"/>
    </linearGradient>
    <linearGradient id="vpnAccent" x1="0" x2="1" y1="0" y2="0">
      <stop offset="0" stop-color="#9ca3af"/>
      <stop offset="0.5" stop-color="#d1d5db"/>
      <stop offset="1" stop-color="#6b7280"/>
    </linearGradient>
    <filter id="vpnShadow" x="-6%" y="-18%" width="112%" height="150%">
      <feDropShadow dx="0" dy="8" stdDeviation="8" flood-color="#020617" flood-opacity="0.42"/>
    </filter>
  </defs>

  <g filter="url(#vpnShadow)">
    <rect x="24" y="22" width="912" height="176" rx="14" fill="url(#vpnBody)" stroke="#3a4453" stroke-width="2"/>
    <rect x="34" y="32" width="892" height="156" rx="10" fill="none" stroke="#ffffff" stroke-opacity="0.06"/>
    <line x1="42" y1="24" x2="918" y2="24" stroke="url(#vpnEdge)" stroke-opacity="0.5"/>
  </g>

  <g transform="translate(52 42)">
    <g fill="#cbd5e1">
      <rect x="0" y="8" width="3.4" height="14" rx="1.2"/>
      <rect x="6" y="4" width="3.4" height="18" rx="1.2"/>
      <rect x="12" y="0" width="3.4" height="22" rx="1.2"/>
      <rect x="18" y="4" width="3.4" height="18" rx="1.2"/>
      <rect x="24" y="8" width="3.4" height="14" rx="1.2"/>
    </g>
    <text x="0" y="40" font-family="Arial, Helvetica, sans-serif" font-size="14" font-weight="700" fill="#94a3b8" letter-spacing="1">CISCO SECURE</text>
    <text x="0" y="58" font-family="Arial, Helvetica, sans-serif" font-size="11" fill="#64748b">VPN Edge Router</text>
  </g>

  <g transform="translate(54 92)" font-family="Arial, Helvetica, sans-serif" font-size="9" fill="#64748b">
    <circle cx="0" cy="0" r="3.5" fill="#22c55e"/>
    <text x="10" y="3">PWR</text>
    <circle cx="0" cy="18" r="3.5" fill="#d1d5db"/>
    <text x="10" y="21">VPN</text>
    <circle cx="0" cy="36" r="3.5" fill="#9ca3af"/>
    <text x="10" y="39">TUN</text>
    <circle cx="0" cy="54" r="3.5" fill="#f59e0b"/>
    <text x="10" y="57">ACT</text>
  </g>

  <g transform="translate(146 52)">
    <rect x="0" y="0" width="156" height="112" rx="10" fill="#0c111a" stroke="#1f2937"/>
    <path d="M78 18c16 0 29 11 29 26v9h-14v-8c0-8-6-14-15-14-8 0-14 6-14 14v8H50v-9c0-15 12-26 28-26z" fill="#1e293b"/>
    <rect x="34" y="52" width="88" height="42" rx="8" fill="url(#vpnAccent)" opacity="0.18" stroke="#d1d5db" stroke-opacity="0.5"/>
    <rect x="62" y="64" width="32" height="22" rx="4" fill="url(#vpnAccent)" stroke="#e5e7eb" stroke-width="1.2"/>
    <circle cx="78" cy="75" r="4.4" fill="#374151"/>
    <rect x="75.6" y="74" width="4.8" height="9" rx="2.2" fill="#374151"/>
    <path d="M16 84h18l8-10h16l8 10h24l8-10h16l8 10h18" fill="none" stroke="#9ca3af" stroke-width="2.6" stroke-linecap="round" stroke-linejoin="round" opacity="0.95"/>
    <text x="78" y="107" font-family="Arial, Helvetica, sans-serif" font-size="10.5" font-weight="700" letter-spacing="2.2" text-anchor="middle" fill="#e5e7eb">IPSEC</text>
  </g>

  <g transform="translate(332 46)">
    <text x="0" y="0" font-family="Arial, Helvetica, sans-serif" font-size="11" fill="#64748b">WAN / LAN</text>
    <g transform="translate(0 10)">
      <g>
        <rect x="0" y="0" width="34" height="30" rx="3" fill="url(#vpnPanel)" stroke="#475569"/>
        <rect x="6" y="5" width="22" height="14" rx="1.4" fill="#cbd5e1"/>
        <rect x="10" y="20" width="14" height="4" rx="1" fill="#94a3b8"/>
        <circle cx="8" cy="38" r="2.2" fill="#22c55e"/>
        <circle cx="26" cy="38" r="2.2" fill="#f59e0b"/>
      </g>
      <g transform="translate(42 0)">
        <rect x="0" y="0" width="34" height="30" rx="3" fill="url(#vpnPanel)" stroke="#475569"/>
        <rect x="6" y="5" width="22" height="14" rx="1.4" fill="#cbd5e1"/>
        <rect x="10" y="20" width="14" height="4" rx="1" fill="#94a3b8"/>
        <circle cx="8" cy="38" r="2.2" fill="#22c55e"/>
        <circle cx="26" cy="38" r="2.2" fill="#f59e0b"/>
      </g>
      <g transform="translate(84 0)">
        <rect x="0" y="0" width="34" height="30" rx="3" fill="url(#vpnPanel)" stroke="#475569"/>
        <rect x="6" y="5" width="22" height="14" rx="1.4" fill="#cbd5e1"/>
        <rect x="10" y="20" width="14" height="4" rx="1" fill="#94a3b8"/>
        <circle cx="8" cy="38" r="2.2" fill="#22c55e"/>
        <circle cx="26" cy="38" r="2.2" fill="#94a3b8"/>
      </g>
      <g transform="translate(126 0)">
        <rect x="0" y="0" width="34" height="30" rx="3" fill="url(#vpnPanel)" stroke="#475569"/>
        <rect x="6" y="5" width="22" height="14" rx="1.4" fill="#cbd5e1"/>
        <rect x="10" y="20" width="14" height="4" rx="1" fill="#94a3b8"/>
        <circle cx="8" cy="38" r="2.2" fill="#22c55e"/>
        <circle cx="26" cy="38" r="2.2" fill="#94a3b8"/>
      </g>
      <g transform="translate(178 0)">
        <rect x="0" y="0" width="28" height="30" rx="3" fill="url(#vpnBezel)" stroke="#475569"/>
        <rect x="5" y="5" width="18" height="14" rx="1.4" fill="#d1d5db"/>
        <rect x="8" y="20" width="12" height="4" rx="1" fill="#9ca3af"/>
      </g>
      <g transform="translate(214 0)">
        <rect x="0" y="0" width="28" height="30" rx="3" fill="url(#vpnBezel)" stroke="#475569"/>
        <rect x="5" y="5" width="18" height="14" rx="1.4" fill="#d1d5db"/>
        <rect x="8" y="20" width="12" height="4" rx="1" fill="#9ca3af"/>
      </g>
    </g>
    <g transform="translate(0 72)">
      <text x="0" y="0" font-family="Arial, Helvetica, sans-serif" font-size="11" fill="#64748b">SECURE TUNNELS</text>
      <rect x="0" y="12" width="248" height="34" rx="8" fill="#0b1220" stroke="#1f2937"/>
      <path d="M14 29c18-14 36-14 54 0s36 14 54 0 36-14 54 0 36 14 54 0" fill="none" stroke="url(#vpnAccent)" stroke-width="3.2" stroke-linecap="round"/>
      <circle cx="36" cy="29" r="3.2" fill="#d1d5db"/>
      <circle cx="124" cy="29" r="3.2" fill="#9ca3af"/>
      <circle cx="212" cy="29" r="3.2" fill="#6b7280"/>
    </g>
  </g>

  <g transform="translate(604 44)">
    <text x="0" y="0" font-family="Arial, Helvetica, sans-serif" font-size="11" fill="#64748b">VPN MODULES</text>
    <g transform="translate(0 10)">
      <rect x="0" y="0" width="102" height="104" rx="10" fill="url(#vpnBezel)" stroke="#475569"/>
      <rect x="116" y="0" width="102" height="104" rx="10" fill="url(#vpnBezel)" stroke="#475569"/>
      <rect x="232" y="0" width="102" height="104" rx="10" fill="url(#vpnBezel)" stroke="#475569"/>
      <g fill="#cbd5e1">
        <rect x="16" y="16" width="28" height="24" rx="2"/>
        <rect x="56" y="16" width="28" height="24" rx="2"/>
        <rect x="132" y="16" width="28" height="24" rx="2"/>
        <rect x="172" y="16" width="28" height="24" rx="2"/>
        <rect x="248" y="16" width="28" height="24" rx="2"/>
        <rect x="288" y="16" width="28" height="24" rx="2"/>
      </g>
      <g fill="#475569">
        <rect x="18" y="50" width="24" height="8" rx="2"/>
        <rect x="58" y="50" width="24" height="8" rx="2"/>
        <rect x="134" y="50" width="24" height="8" rx="2"/>
        <rect x="174" y="50" width="24" height="8" rx="2"/>
        <rect x="250" y="50" width="24" height="8" rx="2"/>
        <rect x="290" y="50" width="24" height="8" rx="2"/>
      </g>
      <g font-family="Arial, Helvetica, sans-serif" font-size="10" fill="#94a3b8">
        <text x="20" y="80">SITE-A</text>
        <text x="136" y="80">SITE-B</text>
        <text x="252" y="80">DC-HUB</text>
      </g>
      <g fill="#9ca3af">
        <circle cx="18" cy="92" r="3"/>
        <circle cx="134" cy="92" r="3"/>
        <circle cx="250" cy="92" r="3"/>
      </g>
    </g>
  </g>

  <g transform="translate(804 36)">
    <text x="0" y="0" font-family="Arial, Helvetica, sans-serif" font-size="12" fill="#94a3b8" text-anchor="start">Cisco Secure VPN 4431</text>
  </g>

  <g>
    <line x1="40" y1="192" x2="920" y2="192" stroke="#2f3945" stroke-width="1"/>
    <rect x="40" y="193" width="880" height="5" rx="1" fill="#111827"/>
  </g>
</svg>
