<svg xmlns="http://www.w3.org/2000/svg" width="320" height="320" viewBox="0 0 320 320" fill="none">
  <defs>
    <linearGradient id="apBody" x1="76" y1="54" x2="244" y2="246" gradientUnits="userSpaceOnUse">
      <stop stop-color="#FEFEFE"/>
      <stop offset="0.5" stop-color="#F2F4F7"/>
      <stop offset="1" stop-color="#DEE3EA"/>
    </linearGradient>
    <linearGradient id="apEdge" x1="72" y1="48" x2="248" y2="252" gradientUnits="userSpaceOnUse">
      <stop stop-color="#F7F7F8"/>
      <stop offset="1" stop-color="#C8D0D9"/>
    </linearGradient>
    <radialGradient id="apGlow" cx="0" cy="0" r="1" gradientUnits="userSpaceOnUse" gradientTransform="translate(160 152) rotate(90) scale(92 92)">
      <stop stop-color="#FFFFFF" stop-opacity="0.84"/>
      <stop offset="1" stop-color="#FFFFFF" stop-opacity="0"/>
    </radialGradient>
    <filter id="shadow" x="40" y="40" width="240" height="240" filterUnits="userSpaceOnUse" color-interpolation-filters="sRGB">
      <feDropShadow dx="0" dy="18" stdDeviation="16" flood-color="#0F172A" flood-opacity="0.22"/>
    </filter>
    <filter id="baseShadow" x="92" y="244" width="136" height="28" filterUnits="userSpaceOnUse" color-interpolation-filters="sRGB">
      <feGaussianBlur stdDeviation="7"/>
    </filter>
  </defs>

  <ellipse cx="160" cy="255" rx="54" ry="9" fill="#0F172A" fill-opacity="0.16" filter="url(#baseShadow)"/>

  <g filter="url(#shadow)">
    <rect x="76" y="54" width="168" height="168" rx="42" fill="url(#apBody)"/>
    <rect x="76" y="54" width="168" height="168" rx="42" stroke="url(#apEdge)" stroke-width="3"/>
    <path d="M105 66L124 115" stroke="#E2E7ED" stroke-width="5" stroke-linecap="round"/>
    <path d="M92 79L118 125" stroke="#EDF1F5" stroke-width="5" stroke-linecap="round"/>
    <path d="M215 67L196 116" stroke="#E2E7ED" stroke-width="5" stroke-linecap="round"/>
    <path d="M229 80L202 127" stroke="#EDF1F5" stroke-width="5" stroke-linecap="round"/>
    <ellipse cx="160" cy="148" rx="74" ry="74" fill="url(#apGlow)"/>
    <path d="M116 228H204L214 220H106L116 228Z" fill="#D0D7DF"/>
    <path d="M112 233H208L217 228H103L112 233Z" fill="#E8EDF2"/>
  </g>
</svg>
