<svg xmlns="http://www.w3.org/2000/svg" viewBox="0 0 340 250" role="img" aria-label="Premium internet icon">
  <defs>
    <linearGradient id="cloudStroke" x1="34" y1="38" x2="296" y2="202" gradientUnits="userSpaceOnUse">
      <stop offset="0" stop-color="#9be7ff"/>
      <stop offset="0.22" stop-color="#67d3ff"/>
      <stop offset="0.55" stop-color="#2ea8ff"/>
      <stop offset="0.82" stop-color="#2563eb"/>
      <stop offset="1" stop-color="#1d4ed8"/>
    </linearGradient>
    <linearGradient id="cloudFill" x1="78" y1="64" x2="250" y2="184" gradientUnits="userSpaceOnUse">
      <stop offset="0" stop-color="#ffffff" stop-opacity="0.26"/>
      <stop offset="0.45" stop-color="#dbeafe" stop-opacity="0.16"/>
      <stop offset="1" stop-color="#60a5fa" stop-opacity="0.07"/>
    </linearGradient>
    <radialGradient id="globeFill" cx="44%" cy="34%" r="70%">
      <stop offset="0" stop-color="#effcff" stop-opacity="0.92"/>
      <stop offset="0.38" stop-color="#c8f5ff" stop-opacity="0.58"/>
      <stop offset="0.78" stop-color="#60a5fa" stop-opacity="0.16"/>
      <stop offset="1" stop-color="#2563eb" stop-opacity="0.06"/>
    </radialGradient>
    <linearGradient id="globeStroke" x1="108" y1="76" x2="212" y2="182" gradientUnits="userSpaceOnUse">
      <stop offset="0" stop-color="#d8fbff"/>
      <stop offset="0.22" stop-color="#67e8f9"/>
      <stop offset="0.58" stop-color="#38bdf8"/>
      <stop offset="0.86" stop-color="#2563eb"/>
      <stop offset="1" stop-color="#1e40af"/>
    </linearGradient>
    <linearGradient id="glassBeam" x1="120" y1="58" x2="236" y2="174" gradientUnits="userSpaceOnUse">
      <stop offset="0" stop-color="#ffffff" stop-opacity="0.62"/>
      <stop offset="0.5" stop-color="#e0f2fe" stop-opacity="0.18"/>
      <stop offset="1" stop-color="#ffffff" stop-opacity="0"/>
    </linearGradient>
    <filter id="outerGlow" x="-25%" y="-25%" width="150%" height="160%">
      <feDropShadow dx="0" dy="0" stdDeviation="12" flood-color="#38bdf8" flood-opacity="0.18"/>
      <feDropShadow dx="0" dy="10" stdDeviation="10" flood-color="#0f172a" flood-opacity="0.22"/>
    </filter>
    <filter id="innerDepth" x="-20%" y="-20%" width="140%" height="140%">
      <feDropShadow dx="0" dy="3" stdDeviation="4" flood-color="#1e3a8a" flood-opacity="0.18"/>
    </filter>
  </defs>

  <g filter="url(#outerGlow)">
    <path
      d="M108 190H84c-20 0-37-16-37-36 0-15 9-27 22-33 2-28 27-49 59-49 7 0 13 1 19 3 9-33 43-58 83-58 36 0 68 19 81 48 4-1 8-1 12-1 30 0 54 22 54 49 24 5 41 23 41 45 0 27-22 49-49 49H223"
      fill="url(#cloudFill)"
      stroke="url(#cloudStroke)"
      stroke-width="16"
      stroke-linecap="round"
      stroke-linejoin="round"/>

    <path
      d="M112 184H88c-15 0-28-12-28-27 0-11 7-21 17-25 2-24 23-42 52-42 6 0 12 1 17 3 8-28 36-49 71-49 32 0 60 17 72 43"
      fill="none"
      stroke="#e0f2fe"
      stroke-opacity="0.6"
      stroke-width="4"
      stroke-linecap="round"/>

    <g filter="url(#innerDepth)">
      <circle cx="170" cy="126" r="54" fill="url(#globeFill)" stroke="url(#globeStroke)" stroke-width="10"/>
      <ellipse cx="170" cy="126" rx="23" ry="54" fill="none" stroke="url(#globeStroke)" stroke-width="7"/>
      <ellipse cx="170" cy="126" rx="45" ry="20" fill="none" stroke="url(#globeStroke)" stroke-width="7"/>
      <path d="M116 126h108" fill="none" stroke="url(#globeStroke)" stroke-width="7" stroke-linecap="round"/>
      <path d="M170 72v108" fill="none" stroke="url(#globeStroke)" stroke-width="7" stroke-linecap="round"/>
      <path d="M129 95c12 10 26 15 41 15 15 0 29-5 41-15" fill="none" stroke="url(#globeStroke)" stroke-width="7" stroke-linecap="round"/>
      <path d="M129 157c12-10 26-15 41-15 15 0 29 5 41 15" fill="none" stroke="url(#globeStroke)" stroke-width="7" stroke-linecap="round"/>
      <path d="M136 80c16-9 39-12 60-6" fill="none" stroke="url(#glassBeam)" stroke-width="8" stroke-linecap="round"/>
    </g>

    <path d="M106 66c10-9 23-15 36-18" fill="none" stroke="#ffffff" stroke-opacity="0.7" stroke-width="6" stroke-linecap="round"/>
    <path d="M150 46c18-2 37 0 53 6" fill="none" stroke="#dbeafe" stroke-opacity="0.58" stroke-width="5" stroke-linecap="round"/>
    <path d="M238 58c18 8 34 22 44 40" fill="none" stroke="#e0f2fe" stroke-opacity="0.42" stroke-width="5" stroke-linecap="round"/>
  </g>
</svg>
